<?xml version="1.0" standalone="no"?>
<!DOCTYPE svg PUBLIC "-//W3C//DTD SVG 20010904//EN"
 "http://www.w3.org/TR/2001/REC-SVG-20010904/DTD/svg10.dtd">
<svg version="1.0" xmlns="http://www.w3.org/2000/svg"
 width="500.000000pt" height="500.000000pt" viewBox="0 0 500.000000 500.000000"
 preserveAspectRatio="xMidYMid meet">
<metadata>
Created by potrace 1.14, written by Peter Selinger 2001-2017
</metadata>
<g transform="translate(0.000000,500.000000) scale(0.100000,-0.100000)"
fill="#000000" stroke="none">
<path d="M1110 4993 c-27 -5 -156 -32 -180 -38 -258 -64 -511 -233 -676 -451
-113 -150 -204 -365 -238 -559 -12 -66 -14 -325 -14 -1445 -1 -1306 0 -1369
19 -1465 26 -140 62 -243 125 -363 69 -132 117 -196 228 -308 165 -165 373
-280 591 -328 39 -9 84 -19 100 -23 17 -4 649 -8 1405 -10 1508 -2 1455 -4
1655 58 110 34 274 115 363 181 224 164 401 425 472 697 38 144 38 169 39
1561 0 1295 -1 1359 -19 1455 -40 209 -94 342 -202 502 -176 262 -441 436
-788 519 -70 17 -168 18 -1465 20 -765 1 -1401 -1 -1415 -3z"/>
</g>
</svg>
